<svg width="47" height="47" viewBox="0 0 47 47" fill="none" xmlns="http://www.w3.org/2000/svg">
<path d="M0.688629 23.0607C0.688629 12.1898 0.688629 6.75433 4.06579 3.37716C7.44296 0 12.8784 0 23.7494 0C34.6203 0 40.0557 0 43.433 3.37716C46.8101 6.75433 46.8101 12.1898 46.8101 23.0607C46.8101 33.9317 46.8101 39.3671 43.433 42.7443C40.0557 46.1215 34.6203 46.1215 23.7494 46.1215C12.8784 46.1215 7.44296 46.1215 4.06579 42.7443C0.688629 39.3671 0.688629 33.9317 0.688629 23.0607Z" fill="#232B36"/>
<path d="M28.3617 29.9785C28.9985 29.9785 29.5264 30.4998 29.3999 31.1239C29.1763 32.2262 28.6332 33.248 27.8261 34.0551C26.745 35.1363 25.2786 35.7437 23.7495 35.7437C22.2205 35.7437 20.7542 35.1363 19.673 34.0551C18.8658 33.248 18.3228 32.2262 18.0993 31.1239C17.9727 30.4998 18.5006 29.9785 19.1374 29.9785H28.3617Z" fill="#2DF8BB"/>
<path d="M30.7861 20.497C30.1709 20.6618 29.7942 21.3053 30.1061 21.8604C30.4344 22.4448 30.8885 22.9548 31.4409 23.3506C32.3082 23.9721 33.3642 24.2738 34.429 24.2039C35.4937 24.1341 36.5013 23.6974 37.2801 22.9679C38.059 22.2385 38.5607 21.2616 38.7 20.2036C38.8392 19.1457 38.6075 18.0723 38.044 17.1661C37.4805 16.26 36.6202 15.5773 35.6098 15.2343C34.5994 14.8913 33.5014 14.9092 32.5027 15.2851C31.8667 15.5245 31.2962 15.8996 30.8278 16.379C30.3829 16.8346 30.5802 17.5537 31.1317 17.8721L31.7166 18.2098C32.6062 18.7235 32.4308 20.0563 31.4385 20.3222L30.7861 20.497Z" fill="#2DF8BB"/>
<path d="M16.7135 20.497C17.3286 20.6618 17.7053 21.3053 17.3934 21.8604C17.0651 22.4448 16.6111 22.9548 16.0588 23.3506C15.1914 23.9721 14.1354 24.2738 13.0707 24.2039C12.0059 24.1341 10.9982 23.6974 10.2194 22.9679C9.44064 22.2385 8.93885 21.2616 8.79957 20.2036C8.6603 19.1457 8.89214 18.0723 9.45562 17.1661C10.0191 16.26 10.8793 15.5773 11.8897 15.2343C12.9001 14.8913 13.9983 14.9092 14.9969 15.2851C15.6328 15.5245 16.2035 15.8996 16.6718 16.379C17.1168 16.8346 16.9194 17.5537 16.3679 17.8721L15.783 18.2098C14.8934 18.7235 15.0689 20.0563 16.0611 20.3222L16.7135 20.497Z" fill="#2DF8BB"/>
</svg>
