<svg width="15" height="44" viewBox="0 0 15 44" fill="none" xmlns="http://www.w3.org/2000/svg">
<path d="M14.8211 7.67475C14.8211 5.80322 14.0752 4.00835 12.7474 2.68499C11.4195 1.36162 9.61857 0.618164 7.74075 0.618164C5.86292 0.618164 4.06201 1.36162 2.73419 2.68499C1.40636 4.00835 0.6604 5.80322 0.6604 7.67475V29.0131L6.49127 33.177V43.3209H8.99022V33.177L14.8211 29.0131V7.67475ZM12.3221 19.6087L8.99022 22.9294V19.8162L12.3221 16.4955V19.6087ZM3.21141 16.4955L6.54333 19.8162V22.9294L3.21141 19.6087V16.4955ZM12.3221 12.9672L7.74075 17.5332L3.15935 12.8634V9.75022L7.74075 14.3162L12.3221 9.75022V12.9672ZM7.74075 3.10872C8.74833 3.11316 9.72667 3.44667 10.5259 4.05816C11.3252 4.66964 11.9012 5.52538 12.166 6.49433L7.74075 10.8917L3.31553 6.49433C3.57055 5.51575 4.14249 4.6484 4.94262 4.02687C5.74275 3.40533 6.72632 3.06435 7.74075 3.05682V3.10872ZM3.15935 27.7549V23.0851L6.49127 26.4058V30.1157L3.15935 27.7549ZM8.99022 30.1287V26.4058L12.3221 23.0851V27.7419L8.99022 30.1287Z" fill="#A1A1AA"/>
</svg>
