<svg width="39" height="39" viewBox="0 0 39 39" fill="none" xmlns="http://www.w3.org/2000/svg">
<path d="M27.0567 17.8577C28.4295 16.7081 29.3024 14.9814 29.3024 13.0508C29.3024 11.1202 28.4295 9.39352 27.0567 8.24393C27.214 8.16774 27.3654 8.08506 27.5097 7.99545C28.4202 7.42927 29.495 7.10229 30.6461 7.10229C33.9314 7.10229 36.5946 9.76558 36.5946 13.0508C36.5946 16.336 33.9314 18.9993 30.6461 18.9993C29.495 18.9993 28.4202 18.6723 27.5097 18.1062C27.3654 18.0166 27.214 17.9339 27.0567 17.8577Z" fill="url(#paint0_linear_109_26)"/>
<path d="M25.405 13.9871C26.019 12.3052 25.9117 10.3733 24.9464 8.70138C23.9811 7.02944 22.3617 5.97056 20.598 5.66138C20.6962 5.51677 20.7859 5.36945 20.866 5.21973C21.3715 4.27414 22.1388 3.45359 23.1357 2.87802C25.9809 1.23539 29.619 2.2102 31.2615 5.05532C32.9041 7.90045 31.9294 11.5385 29.0842 13.1811C28.0873 13.7567 26.993 14.0109 25.9214 13.9759C25.7517 13.9703 25.5792 13.9745 25.405 13.9871Z" fill="url(#paint1_linear_109_26)"/>
<path d="M22.0383 11.4614C21.7291 9.69779 20.6702 8.0784 18.9983 7.1131C17.3264 6.1478 15.3945 6.04049 13.7126 6.65455C13.7253 6.48024 13.7294 6.30777 13.7238 6.1381C13.6888 5.06643 13.943 3.97216 14.5186 2.97524C16.1613 0.13012 19.7993 -0.844692 22.6444 0.797941C25.4895 2.44057 26.4644 6.07862 24.8217 8.92378C24.2461 9.92065 23.4256 10.688 22.48 11.1935C22.3303 11.2735 22.183 11.3633 22.0383 11.4614Z" fill="url(#paint2_linear_109_26)"/>
<path d="M17.8601 10.9571C16.7105 9.58434 14.9838 8.71137 13.0532 8.71137C11.1225 8.71137 9.39588 9.58434 8.2463 10.9571C8.17015 10.7998 8.08745 10.6484 7.99781 10.5041C7.43165 9.59358 7.10468 8.51886 7.10468 7.3677C7.10468 4.08243 9.76791 1.41919 13.0532 1.41919C16.3385 1.41919 19.0017 4.08243 19.0017 7.3677C19.0017 8.51886 18.6747 9.59358 18.1086 10.5041C18.0189 10.6484 17.9362 10.7998 17.8601 10.9571Z" fill="url(#paint3_linear_109_26)"/>
<path d="M13.9885 12.6097C12.3065 11.9956 10.3746 12.1029 8.70268 13.0682C7.03073 14.0335 5.97185 15.6529 5.66268 17.4165C5.51807 17.3183 5.37074 17.2286 5.22102 17.1486C4.27543 16.643 3.45487 15.8757 2.87931 14.8788C1.23666 12.0337 2.21148 8.39568 5.05661 6.75303C7.90174 5.11038 11.5398 6.08519 13.1825 8.93035C13.758 9.92722 14.0122 11.0215 13.9772 12.0932C13.9717 12.2628 13.9757 12.4353 13.9885 12.6097Z" fill="url(#paint4_linear_109_26)"/>
<path d="M11.4617 15.9759C9.69798 16.2851 8.0786 17.3439 7.1133 19.0159C6.148 20.6878 6.04069 22.6197 6.65476 24.3016C6.48043 24.2889 6.30794 24.2848 6.13825 24.2903C5.06658 24.3254 3.97231 24.0712 2.9754 23.4956C0.130272 21.8529 -0.844541 18.2149 0.798095 15.3698C2.44073 12.5247 6.07878 11.5498 8.92391 13.1925C9.92082 13.7681 10.6881 14.5886 11.1936 15.5341C11.2737 15.6839 11.3635 15.8312 11.4617 15.9759Z" fill="url(#paint5_linear_109_26)"/>
<path d="M10.9565 20.1544C9.58371 21.304 8.71071 23.0307 8.71071 24.9612C8.71071 26.8918 9.58371 28.6185 10.9565 29.7681C10.7992 29.8442 10.6478 29.927 10.5036 30.0166C9.59299 30.5827 8.51822 30.9097 7.36708 30.9097C4.08182 30.9097 1.41858 28.2465 1.41858 24.9612C1.41858 21.6759 4.08182 19.0127 7.36708 19.0127C8.51822 19.0127 9.59299 19.3397 10.5036 19.9059C10.6478 19.9955 10.7992 20.0782 10.9565 20.1544Z" fill="url(#paint6_linear_109_26)"/>
<path d="M12.6078 24.0264C11.9936 25.7083 12.101 27.6402 13.0663 29.3121C14.0316 30.9842 15.651 32.0429 17.4146 32.3521C17.3165 32.4968 17.2267 32.6441 17.1467 32.7939C16.6412 33.7394 15.8739 34.5599 14.877 35.1355C12.0318 36.7782 8.39376 35.8033 6.75113 32.9582C5.10849 30.1131 6.08331 26.4751 8.92843 24.8324C9.92535 24.2568 11.0196 24.0026 12.0913 24.0377C12.2609 24.0432 12.4334 24.0391 12.6078 24.0264Z" fill="url(#paint7_linear_109_26)"/>
<path d="M15.9745 26.5527C16.2837 28.3164 17.3426 29.9358 19.0145 30.901C20.6865 31.8663 22.6184 31.9736 24.3004 31.3596C24.2876 31.5339 24.2836 31.7063 24.2891 31.8761C24.3241 32.9477 24.0699 34.042 23.4944 35.0389C21.8517 37.8841 18.2137 38.8588 15.3685 37.2161C12.5233 35.5736 11.5485 31.9356 13.1912 29.0904C13.7668 28.0935 14.5873 27.3262 15.5329 26.8207C15.6826 26.7406 15.8299 26.6508 15.9745 26.5527Z" fill="url(#paint8_linear_109_26)"/>
<path d="M20.1534 27.0586C21.303 28.4314 23.0297 29.3043 24.9603 29.3043C26.891 29.3043 28.6177 28.4314 29.7673 27.0586C29.8433 27.2159 29.926 27.3673 30.0157 27.5115C30.5818 28.422 30.9088 29.4969 30.9088 30.648C30.9088 33.9333 28.2456 36.5965 24.9603 36.5965C21.675 36.5965 19.0118 33.9333 19.0118 30.648C19.0118 29.4969 19.3388 28.422 19.9049 27.5115C19.9946 27.3673 20.0773 27.2159 20.1534 27.0586Z" fill="url(#paint9_linear_109_26)"/>
<path d="M24.025 25.4067C25.707 26.0207 27.6388 25.9134 29.3108 24.9482C30.9827 23.9829 32.0416 22.3635 32.3508 20.5999C32.4953 20.6979 32.6427 20.7878 32.7924 20.8678C33.7381 21.3733 34.5586 22.1406 35.1341 23.1375C36.7768 25.9827 35.802 29.6207 32.9569 31.2634C30.1117 32.906 26.4737 31.9312 24.831 29.086C24.2555 28.0891 24.0013 26.9948 24.0362 25.9232C24.0418 25.7536 24.0378 25.5811 24.025 25.4067Z" fill="url(#paint10_linear_109_26)"/>
<path d="M30.9041 18.9935C30.9028 18.9956 30.9016 18.9977 30.9004 18.9998C29.9352 20.6717 28.3158 21.7306 26.5522 22.0398C26.6503 22.1844 26.7401 22.3318 26.8201 22.4814C27.3257 23.4271 28.093 24.2476 29.0898 24.8231C31.935 26.4658 35.573 25.4909 37.2157 22.6459C38.6239 20.2066 38.1084 17.1847 36.1398 15.3369C35.2749 17.4124 33.2681 18.8928 30.9041 18.9935Z" fill="url(#paint11_linear_109_26)"/>
<defs>
<linearGradient id="paint0_linear_109_26" x1="27.8015" y1="7.10229" x2="27.8015" y2="18.9993" gradientUnits="userSpaceOnUse">
<stop stop-color="#25136D"/>
<stop offset="1" stop-color="#3D9BA2"/>
</linearGradient>
<linearGradient id="paint1_linear_109_26" x1="20.6722" y1="4.30031" x2="26.6207" y2="14.6035" gradientUnits="userSpaceOnUse">
<stop stop-color="#25136D"/>
<stop offset="1" stop-color="#3D9BA2"/>
</linearGradient>
<linearGradient id="paint2_linear_109_26" x1="13.0963" y1="5.43874" x2="23.3994" y2="11.3872" gradientUnits="userSpaceOnUse">
<stop stop-color="#25136D"/>
<stop offset="1" stop-color="#3D9BA2"/>
</linearGradient>
<linearGradient id="paint3_linear_109_26" x1="7.10468" y1="10.2122" x2="19.0017" y2="10.2122" gradientUnits="userSpaceOnUse">
<stop stop-color="#25136D"/>
<stop offset="1" stop-color="#3D9BA2"/>
</linearGradient>
<linearGradient id="paint4_linear_109_26" x1="4.30161" y1="17.3423" x2="14.6047" y2="11.3938" gradientUnits="userSpaceOnUse">
<stop stop-color="#25136D"/>
<stop offset="1" stop-color="#3D9BA2"/>
</linearGradient>
<linearGradient id="paint5_linear_109_26" x1="5.43891" y1="24.9179" x2="11.3875" y2="14.6148" gradientUnits="userSpaceOnUse">
<stop stop-color="#25136D"/>
<stop offset="1" stop-color="#3D9BA2"/>
</linearGradient>
<linearGradient id="paint6_linear_109_26" x1="10.2117" y1="30.9097" x2="10.2117" y2="19.0127" gradientUnits="userSpaceOnUse">
<stop stop-color="#25136D"/>
<stop offset="1" stop-color="#3D9BA2"/>
</linearGradient>
<linearGradient id="paint7_linear_109_26" x1="17.3404" y1="33.7132" x2="11.3919" y2="23.4101" gradientUnits="userSpaceOnUse">
<stop stop-color="#25136D"/>
<stop offset="1" stop-color="#3D9BA2"/>
</linearGradient>
<linearGradient id="paint8_linear_109_26" x1="24.9166" y1="32.5755" x2="14.6135" y2="26.6268" gradientUnits="userSpaceOnUse">
<stop stop-color="#25136D"/>
<stop offset="1" stop-color="#3D9BA2"/>
</linearGradient>
<linearGradient id="paint9_linear_109_26" x1="30.9088" y1="27.8034" x2="19.0118" y2="27.8034" gradientUnits="userSpaceOnUse">
<stop stop-color="#25136D"/>
<stop offset="1" stop-color="#3D9BA2"/>
</linearGradient>
<linearGradient id="paint10_linear_109_26" x1="33.7119" y1="20.6741" x2="23.4088" y2="26.6226" gradientUnits="userSpaceOnUse">
<stop stop-color="#25136D"/>
<stop offset="1" stop-color="#3D9BA2"/>
</linearGradient>
<linearGradient id="paint11_linear_109_26" x1="32.5749" y1="13.0978" x2="26.6264" y2="23.4009" gradientUnits="userSpaceOnUse">
<stop stop-color="#25136D"/>
<stop offset="1" stop-color="#3D9BA2"/>
</linearGradient>
</defs>
</svg>
