<svg width="33" height="33" viewBox="0 0 33 33" fill="none" xmlns="http://www.w3.org/2000/svg">
<path d="M-0.00012207 29.3503C5.40314 29.3503 9.7833 24.9701 9.7833 19.5669C9.7833 14.1636 5.40314 9.78345 -0.00012207 9.78345V16.6318C1.62084 16.6318 2.93489 17.9459 2.93489 19.5669C2.93489 21.1879 1.62084 22.5019 -0.00012207 22.5019V29.3503Z" fill="#E11D48"/>
<path d="M32.611 13.0448C30.9392 12.5152 29.1588 12.2295 27.3116 12.2295C17.6308 12.2295 9.78302 20.0774 9.78302 29.7581C9.78302 30.7298 9.86209 31.6831 10.0141 32.6117H20.9052C20.5164 31.74 20.3003 30.7744 20.3003 29.7581C20.3003 25.8858 23.4393 22.7467 27.3116 22.7467C29.4281 22.7467 31.3254 23.6844 32.611 25.167V13.0448Z" fill="#FDA4AF"/>
<path d="M1.71957 0C2.53069 7.33749 8.75147 13.0446 16.3052 13.0446C23.8588 13.0446 30.0796 7.33749 30.8907 0H20.3958C19.7479 1.62423 18.1605 2.77196 16.3052 2.77196C14.4497 2.77196 12.8625 1.62423 12.2144 0H1.71957Z" fill="#FB7185"/>
</svg>
