<svg width="47" height="47" viewBox="0 0 47 47" fill="none" xmlns="http://www.w3.org/2000/svg">
<path fill-rule="evenodd" clip-rule="evenodd" d="M9.86161 4.48734C8.21201 5.64079 6.72032 7.00454 5.42541 8.53972C10.717 8.04845 17.4399 8.85064 25.245 12.7532C33.5798 16.9205 40.2914 17.0614 44.9624 16.1605C44.5385 14.8772 44.0049 13.644 43.3729 12.4716C38.026 13.0355 31.1712 12.289 23.1825 8.29479C18.1096 5.75834 13.6378 4.71349 9.86161 4.48734ZM40.2495 8.02575C36.0269 3.30793 29.8906 0.338867 23.0607 0.338867C21.055 0.338867 19.1089 0.594965 17.2537 1.07621C19.7663 1.76181 22.4356 2.76484 25.245 4.16956C31.0939 7.09396 36.1435 8.03557 40.2495 8.02575ZM45.961 20.6647C40.3181 21.779 32.5257 21.5501 23.1825 16.8785C14.4475 12.511 7.49524 12.566 2.80638 13.608C2.56435 13.6617 2.32803 13.7182 2.09741 13.777C1.48352 15.1121 0.993496 16.5161 0.641898 17.974C1.01742 17.8736 1.40547 17.7783 1.80584 17.6893C7.49424 16.4252 15.5315 16.4801 25.245 21.3369C33.9801 25.7044 40.9323 25.6494 45.6212 24.6074C45.7819 24.5718 45.9402 24.5349 46.0958 24.4968C46.1129 24.1333 46.1214 23.7674 46.1214 23.3996C46.1214 22.4743 46.067 21.5616 45.961 20.6647ZM45.3429 29.3634C39.7547 30.3404 32.1893 29.9654 23.1825 25.4621C14.4475 21.0947 7.49524 21.1497 2.80638 22.1917C1.76559 22.4228 0.829309 22.7045 0.0033784 23.0019C0.00112652 23.1341 0 23.2667 0 23.3996C0 36.1357 10.3246 46.4603 23.0607 46.4603C33.7345 46.4603 42.7146 39.2087 45.3429 29.3634Z" fill="#7F57F1"/>
</svg>
